inDegrees=no
num_controls=7
num_derivatives=13
num_iterations=128
num_multipliers=7
num_parameters=0
num_slacks=7
num_states=26
objective=5.036144
objective_accelerations=0.350260
objective_balance=0.021912
objective_effort=0.170713
objective_height=4.426647
objective_ligament=0.066611
solver_duration=1426.847963
status=Solve_Succeeded
success=true
DataType=double
version=3
OpenSimVersion=4.4-2022-07-23-0e9fedc
endheader
time	/jointset/ground_pelvis/pelvis_tilt/value	/jointset/ground_pelvis/pelvis_tx/value	/jointset/ground_pelvis/pelvis_ty/value	/jointset/hip_l/hip_flexion_l/value	/jointset/hip_l/hip_adduction_l/value	/jointset/hip_l/hip_rotation_l/value	/jointset/back/lumbar_extension/value	/jointset/patellofemoral_l/patellar_flexion_l/value	/jointset/knee_l/knee_flexion_l/value	/jointset/knee_l/knee_adduction_l/value	/jointset/knee_l/knee_rotation_l/value	/jointset/ankle_l/ankle_angle_l/value	/jointset/subtalar_l/subtalar_angle_l/value	/jointset/ground_pelvis/pelvis_tilt/speed	/jointset/ground_pelvis/pelvis_tx/speed	/jointset/ground_pelvis/pelvis_ty/speed	/jointset/hip_l/hip_flexion_l/speed	/jointset/hip_l/hip_adduction_l/speed	/jointset/hip_l/hip_rotation_l/speed	/jointset/back/lumbar_extension/speed	/jointset/patellofemoral_l/patellar_flexion_l/speed	/jointset/knee_l/knee_flexion_l/speed	/jointset/knee_l/knee_adduction_l/speed	/jointset/knee_l/knee_rotation_l/speed	/jointset/ankle_l/ankle_angle_l/speed	/jointset/subtalar_l/subtalar_angle_l/speed	/forceset/tau_hip_flexion_l	/forceset/tau_hip_adduction_l	/forceset/tau_hip_rotation_l	/forceset/tau_knee_flexion_l	/forceset/tau_ankle_angle_l	/forceset/tau_subtalar_angle_l	/forceset/tau_lumbar_extension	lambda_cid13_p0	lambda_cid13_p1	lambda_cid13_p2	lambda_cid13_p3	lambda_cid13_p4	lambda_cid13_p5	lambda_cid14_p0	/jointset/ground_pelvis/pelvis_tilt/accel	/jointset/ground_pelvis/pelvis_tx/accel	/jointset/ground_pelvis/pelvis_ty/accel	/jointset/hip_l/hip_flexion_l/accel	/jointset/hip_l/hip_adduction_l/accel	/jointset/hip_l/hip_rotation_l/accel	/jointset/back/lumbar_extension/accel	/jointset/patellofemoral_l/patellar_flexion_l/accel	/jointset/knee_l/knee_flexion_l/accel	/jointset/knee_l/knee_adduction_l/accel	/jointset/knee_l/knee_rotation_l/accel	/jointset/ankle_l/ankle_angle_l/accel	/jointset/subtalar_l/subtalar_angle_l/accel	gamma_cid13_p0	gamma_cid13_p1	gamma_cid13_p2	gamma_cid13_p3	gamma_cid13_p4	gamma_cid13_p5	gamma_cid14_p0
1	-0.1781637212675073	0.07868844609039219	0.7212566015329444	0.9559842713837123	-0.5012868045702173	-0.09438325487738039	-0.2617855790027067	1.134694545093652	1.134694545093744	-0.1597017606933432	-0.1745201226883444	0.4362808983337884	0.09024416786561086	-0.01566307588440408	0.01129516067464035	0.0006501935822530704	-0.004455647230304228	-0.002673757352253823	-0.002470461304522191	-0.000186422557860379	-0.003815766361777417	-0.003815766361775935	-0.003564949042139377	2.048599141462308e-05	0.01465347279967947	0.007520157244767197	-0.1167319467025706	0.07303800970547905	-0.01103267215794663	-0.3144916290102797	-0.0972268857951069	0.02267736728824121	0.1401729705336299	-67.791576970427	-0.272239134537052	2.32695378762704	14.85195012271988	-598.1705351634639	-65.81107407358861	-10.83087202099871	0.5197278310835953	-0.1032574655270235	1.086520518524383	-3.211533097531774	0.4266641212363146	-1.961091013990639	-0.02014579611894438	-4.201878166917803	-4.201878166917814	-0.02314677557272928	-0.003450205097900778	-1.977387410050941	-0.8564228927268143	1.845925458942839e-09	1.148218246840356e-08	-4.527784922591022e-09	2.403689535819356e-09	7.963302588408546e-11	2.030781753735393e-08	1.158551460992315e-10
1.01	-0.1782949669733895	0.07879623186546211	0.7213172732061555	0.9557802152363192	-0.5012919042186437	-0.09450681400111892	-0.2617877694540603	1.134446839543645	1.134446839543695	-0.1597369752440126	-0.1745199338666646	0.4363288385012268	0.09027729071199306	-0.01058831347893139	0.01026329562246831	0.01147908275765314	-0.03634393854641411	0.001652221153288251	-0.02223689456237058	-0.0002493394977814401	-0.04571187200292052	-0.04571187200291699	-0.003478766999627965	1.219891798837632e-05	-0.005060441825808292	-0.0008940831430223063	-0.1167195780350898	0.07306441730246932	-0.0110291805208384	-0.3142293664083551	-0.09731787723092569	0.02268250189175494	0.1401487824833226	-67.80479028879333	-0.2775163902626905	2.333918871086389	14.79145262634846	-597.9681086481529	-65.78895563584422	-10.84175316321361	0.5010129097256643	-0.1029552379700019	1.080313180840152	-3.175731026309563	0.4353214242052957	-1.983751967526896	0.0009845935949515858	-4.181455202022836	-4.181455202022611	0.02437928409629976	-0.0002753256154672086	-1.967643799904063	-0.8337018984391843	-2.718495476000573e-09	3.53425910579694e-09	2.069601186568679e-08	2.968579778294204e-09	-5.894287618161663e-09	9.890784526838743e-09	-4.035808026544458e-09
1.02	-0.1783755325623248	0.07889373814742834	0.7214860817838783	0.9552576254002176	-0.5012537927402242	-0.09482790395459315	-0.2617905192272751	1.133780577249374	1.133780577249378	-0.1597713522562854	-0.174519979389028	0.4361797894605406	0.09022631569716941	-0.005527052495611631	0.009239262053897147	0.02227757448473505	-0.06816238496890518	0.005968468018514696	-0.04197662725400406	-0.000298286976732157	-0.0875271152164772	-0.08752711521647157	-0.003397441359785009	-2.638284144643092e-05	-0.02474436889555073	-0.009299414996172185	-0.1167072093677298	0.0730908248994709	-0.01102568888407318	-0.3139671038064201	-0.09740886866672506	0.02268763649531069	0.1401245944329027	-67.82720496286876	-0.2828781560282134	2.342833490947229	14.76282413132056	-597.8980738605601	-65.76877411105229	-10.8704311494773	0.5170275466530534	-0.1016911688069307	1.08044102886077	-3.197564118807938	0.4247177931733402	-1.955750900747445	-0.01735190392211508	-4.185705681400599	-4.185705681400602	-0.02411805610635146	-0.009509142299233881	-1.971389898901989	-0.8546411857987299	-6.654220064046214e-09	-2.115436469888581e-09	4.480642996153962e-08	3.7204954953246e-09	-1.133230656426371e-08	1.841425360839208e-09	-7.913358996119489e-09
1.03	-0.1784055792896506	0.07898104513583271	0.7217626666417876	0.9544173239253241	-0.501172553634529	-0.09534613356377455	-0.2617936666279621	1.132696671487645	1.132696671487491	-0.1598049661268774	-0.1745205189716372	0.4358340881122928	0.09009141624101891	-0.00048772827746532	0.008223604547844458	0.03302861061729957	-0.0998730474388034	0.01027951077075577	-0.06165446064059239	-0.0003260255004357487	-0.129229752051886	-0.1292297520518784	-0.003326067166968959	-8.257646269529538e-05	-0.04438699734809549	-0.01766976352415198	-0.1165943842598815	0.0730549323373494	-0.011032802654085	-0.3134858165312946	-0.09737486033641986	0.02270352486625117	0.1400156072837848	-67.79028030307128	-0.3113819570494779	2.364669644087309	14.68870201033181	-597.5361087386904	-65.74933580441898	-10.91687979707701	0.4965687595413114	-0.1012818041320876	1.070813547678022	-3.154089039500668	0.4343121998941764	-1.971583275810519	0.005290331439662049	-4.15889754260512	-4.158897542605035	0.02265280107471054	-0.003817550252209906	-1.959364435990324	-0.8266316966277136	-1.058352938324596e-08	-7.741680741625912e-09	6.890548705032689e-08	4.474319635564746e-09	-1.676485712569285e-08	-6.18377386797138e-09	-1.17881129023979e-08
1.04	-0.1783853959947538	0.07905823979665016	0.7221464375894657	0.9532606614799213	-0.5010482011646089	-0.09606069825042535	-0.2617969363821282	1.131196468385993	1.131196468385675	-0.1598378887267122	-0.1745216491059462	0.4352922274559753	0.08987313329752146	0.004518951946451519	0.007216796536513315	0.04371479243861622	-0.1314345790455807	0.01459114086878262	-0.08124364275500724	-0.0003227577027747306	-0.1707865832070668	-0.1707865832070571	-0.003259187210181426	-0.0001444932125126072	-0.06397623050302495	-0.02597611246532825	-0.116481559153141	0.07301903977520244	-0.0110399164246099	-0.3130045292562506	-0.09734085200603824	0.02271941323722059	0.1399066201336552	-67.76252113824432	-0.3399372474840944	2.388405188870858	14.64621569932034	-597.3057542377876	-65.73196825723394	-10.98104495937206	0.5104987478072267	-0.0999212698626904	1.067470166611225	-3.16773794618369	0.4248352623307379	-1.938020646312351	-0.01115063964518711	-4.15654454535508	-4.156544545355077	-0.02501690331194189	-0.01065376801223185	-1.960710839378982	-0.8418412684376556	-1.596608793339508e-08	-1.539779090805023e-08	9.110600447020834e-08	6.940157464681671e-09	-2.425147120725073e-08	-1.632152610938439e-08	-1.540179532729911e-08
1.05	-0.1783154794032602	0.07912553309775903	0.7226367779790932	0.9517889716379877	-0.5008807030924025	-0.09697071695149308	-0.2617993320732824	1.129281173904864	1.12928117390472	-0.1598702487205402	-0.1745233390207635	0.4345548023781688	0.08957223236592318	0.009441549068998906	0.006255650717540595	0.05434567956685439	-0.1628943405746328	0.01891066394542857	-0.1007501670388705	-8.192950483354683e-05	-0.2122733890796761	-0.2122733890796705	-0.003219664530160868	-0.0001890835345646576	-0.08349416901483654	-0.03418214496542163	-0.1166344050341069	0.07308787211993621	-0.01105592997421539	-0.3122850189814682	-0.0973629198883627	0.02277142151890231	0.140094460115659	-67.75150214395781	-0.3914573615896816	2.427463828561585	14.49239432103042	-597.1751143579304	-65.70306397133322	-11.06288723911482	0.4797166210529684	-0.09214126621395897	1.059750661374226	-3.133739526246814	0.4358247843661924	-1.955493507191281	0.05286724015245125	-4.14490618013182	-4.144906180132659	0.01740454106715248	-0.0006795768823472778	-1.945144993351308	-0.8067045130619082	-2.139406052201137e-08	-2.311733438368351e-08	1.132471925254365e-07	9.459495721575984e-09	-3.180227477381262e-08	-2.652529563244121e-08	-1.900731926840729e-08
1.06	-0.178197021555206	0.07918362893501732	0.72323319777509	0.9500029553266582	-0.5006699469986488	-0.09807550593290776	-0.2617970859468556	1.126950979850634	1.126950979850681	-0.159902419950066	-0.1745253384210395	0.4336226359879817	0.08918992705486951	0.0142272032544467	0.005377303766395327	0.06493067371260085	-0.1942998729030183	0.02324274518344418	-0.1201976988334428	0.0006056063185799473	-0.253766497829014	-0.2537664978290117	-0.003221434353808022	-0.0002063903598312733	-0.102924492977413	-0.0422569883561768	-0.1167872509160487	0.07315670446471359	-0.01107194352398348	-0.311565508706764	-0.09738498777059222	0.02282342980073817	0.1402823000967585	-67.7497086259268	-0.4428922751605952	2.468255940809998	14.36980663259039	-597.1765843065119	-65.67627509605047	-11.16240288715582	0.4831101603874905	-0.08336149629737548	1.058291570112941	-3.156892106050273	0.4273468946051237	-1.926222148453427	0.07819088544901122	-4.15780512070096	-4.157805120700834	-0.03327540404526921	-0.005197068653875606	-1.943187929532143	-0.8156034465693764	-2.602280368081729e-08	-3.319987324295006e-08	1.356238377093845e-07	9.224656016454091e-09	-3.630536793347147e-08	-3.73974069903264e-08	-2.31627104367543e-08
